<?xml version="1.0" standalone="no"?><!DOCTYPE svg PUBLIC "-//W3C//DTD SVG 1.1//EN" "http://www.w3.org/Graphics/SVG/1.1/DTD/svg11.dtd"><svg width="100%" height="100%" viewBox="0 0 45 12" version="1.1" xmlns="http://www.w3.org/2000/svg" xmlns:xlink="http://www.w3.org/1999/xlink" xml:space="preserve" style="fill-rule:evenodd;clip-rule:evenodd;stroke-linejoin:round;stroke-miterlimit:1.41421;"><g><g><path d="M5.533,2.613l-4.154,0l0,-1.739l7.183,0l-4.912,8.493l4.256,0l0,1.739l-7.244,0l4.871,-8.493l0,0Z" style="fill:#201629;fill-rule:nonzero;"/><path d="M17.105,5.151c-0.109,-0.383 -0.269,-0.74 -0.482,-1.074c-0.211,-0.335 -0.467,-0.622 -0.767,-0.86c-0.3,-0.238 -0.637,-0.426 -1.013,-0.562c-0.374,-0.138 -0.774,-0.205 -1.196,-0.205c-0.424,0 -0.822,0.067 -1.198,0.205c-0.375,0.136 -0.713,0.324 -1.013,0.563c-0.3,0.237 -0.56,0.524 -0.778,0.86c-0.218,0.333 -0.375,0.691 -0.469,1.074l6.916,-0.001ZM13.647,11.351c-0.737,0 -1.429,-0.14 -2.078,-0.42c-0.648,-0.278 -1.213,-0.661 -1.698,-1.145c-0.484,-0.484 -0.866,-1.047 -1.146,-1.689c-0.28,-0.64 -0.42,-1.329 -0.42,-2.066c0,-0.736 0.14,-1.432 0.42,-2.087c0.28,-0.656 0.662,-1.222 1.146,-1.698c0.485,-0.478 1.05,-0.858 1.698,-1.137c0.649,-0.279 1.341,-0.419 2.078,-0.419c0.736,0 1.429,0.14 2.076,0.419c0.649,0.279 1.211,0.659 1.689,1.137c0.477,0.476 0.856,1.042 1.135,1.698c0.28,0.655 0.42,1.351 0.42,2.087c0,0.095 0,0.197 0,0.306c0,0.109 -0.013,0.294 -0.04,0.553l-8.738,0c0.094,0.396 0.251,0.758 0.469,1.085c0.218,0.327 0.478,0.614 0.778,0.86c0.3,0.245 0.638,0.436 1.013,0.573c0.376,0.136 0.774,0.204 1.198,0.204c0.327,0 0.654,-0.086 0.982,-0.257c0.327,-0.169 0.641,-0.398 0.941,-0.684l1.228,1.228c-0.451,0.436 -0.944,0.787 -1.484,1.054c-0.538,0.265 -1.094,0.398 -1.667,0.398l0,0Z" style="fill:#201629;fill-rule:nonzero;"/><path d="M21.714,11.107l-1.76,-0.001l0,-5.116c0,-0.737 0.151,-1.433 0.451,-2.088c0.3,-0.654 0.709,-1.22 1.227,-1.698c0.518,-0.478 1.123,-0.856 1.811,-1.136c0.689,-0.28 1.429,-0.42 2.221,-0.42l0,1.76c-0.545,0 -1.057,0.093 -1.534,0.276c-0.478,0.185 -0.898,0.44 -1.26,0.769c-0.36,0.327 -0.644,0.709 -0.849,1.146c-0.204,0.436 -0.307,0.9 -0.307,1.391l0,5.116Z" style="fill:#201629;fill-rule:nonzero;"/><path d="M30.689,0.648c0.738,0 1.429,0.14 2.078,0.42c0.647,0.28 1.213,0.658 1.698,1.136c0.484,0.478 0.866,1.044 1.146,1.698c0.28,0.655 0.419,1.351 0.419,2.089c0,0.736 -0.139,1.429 -0.419,2.076c-0.28,0.649 -0.662,1.21 -1.146,1.689c-0.485,0.477 -1.051,0.855 -1.698,1.136c-0.649,0.279 -1.34,0.419 -2.078,0.419c-0.737,0 -1.425,-0.14 -2.067,-0.419c-0.641,-0.281 -1.204,-0.659 -1.688,-1.136c-0.485,-0.479 -0.867,-1.04 -1.145,-1.689c-0.28,-0.648 -0.42,-1.34 -0.42,-2.077c0,-0.737 0.14,-1.433 0.42,-2.088c0.278,-0.654 0.66,-1.22 1.145,-1.698c0.484,-0.478 1.047,-0.856 1.688,-1.136c0.642,-0.28 1.33,-0.42 2.067,-0.42l0,0ZM30.689,2.408c-0.491,0 -0.955,0.093 -1.391,0.276c-0.437,0.185 -0.82,0.44 -1.147,0.769c-0.327,0.327 -0.582,0.709 -0.767,1.146c-0.184,0.436 -0.275,0.901 -0.275,1.391c0,0.491 0.091,0.954 0.275,1.392c0.185,0.436 0.44,0.815 0.767,1.135c0.327,0.32 0.71,0.576 1.147,0.767c0.436,0.191 0.9,0.287 1.391,0.287c0.491,0 0.956,-0.096 1.391,-0.287c0.438,-0.191 0.82,-0.447 1.147,-0.767c0.327,-0.32 0.583,-0.699 0.767,-1.135c0.184,-0.438 0.277,-0.901 0.277,-1.392c0,-0.491 -0.093,-0.955 -0.277,-1.391c-0.184,-0.437 -0.44,-0.819 -0.767,-1.146c-0.327,-0.329 -0.709,-0.584 -1.147,-0.769c-0.435,-0.183 -0.9,-0.276 -1.391,-0.276l0,0Z" style="fill:#201629;fill-rule:nonzero;"/></g><g><path d="M39.644,0.649l0,10.464l-1.76,0l0,-8.7l-1.165,0.001l0,-1.764l2.925,0Z" style="fill:#ef4423;"/><path d="M44.338,0.649l0,10.464l-1.758,0l0,-8.7l-1.167,0.001l0,-1.764l2.925,0Z" style="fill:#ef4423;"/></g></g></svg>